<svg width="364" height="176" viewBox="0 0 364 176" fill="none" xmlns="http://www.w3.org/2000/svg">
<mask id="path-1-outside-1_1_13" maskUnits="userSpaceOnUse" x="0" y="0" width="364" height="176" fill="black">
<rect fill="white" width="364" height="176"/>
<path d="M1 70.465V2.55229H33.772C40.1254 2.55229 45.6036 3.58715 50.2066 5.65687C54.8744 7.72659 58.4725 10.7018 61.0009 14.5825C63.5293 18.3986 64.7935 22.9261 64.7935 28.1651C64.7935 33.4041 63.5293 37.9316 61.0009 41.7477C58.4725 45.5637 54.8744 48.5389 50.2066 50.6733C45.6036 52.743 40.1254 53.7779 33.772 53.7779H13.7393L23.9501 43.9791V70.465H1ZM23.9501 46.5015L13.7393 36.1206H32.3133C35.49 36.1206 37.8239 35.4091 39.315 33.9862C40.8709 32.5633 41.6489 30.6229 41.6489 28.1651C41.6489 25.7073 40.8709 23.7669 39.315 22.344C37.8239 20.9211 35.49 20.2096 32.3133 20.2096H13.7393L23.9501 9.82866V46.5015Z"/>
<path d="M72.3202 70.465V2.55229H105.092C111.446 2.55229 116.924 3.58715 121.527 5.65687C126.195 7.72659 129.793 10.7018 132.321 14.5825C134.85 18.3986 136.114 22.9261 136.114 28.1651C136.114 33.4041 134.85 37.9316 132.321 41.7477C129.793 45.499 126.195 48.3772 121.527 50.3823C116.924 52.3873 111.446 53.3898 105.092 53.3898H85.0595L95.2703 43.9791V70.465H72.3202ZM113.066 70.465L96.34 45.7254H120.652L137.572 70.465H113.066ZM95.2703 46.5015L85.0595 36.1206H103.634C106.81 36.1206 109.144 35.4091 110.635 33.9862C112.191 32.5633 112.969 30.6229 112.969 28.1651C112.969 25.7073 112.191 23.7669 110.635 22.344C109.144 20.9211 106.81 20.2096 103.634 20.2096H85.0595L95.2703 9.82866V46.5015Z"/>
<path d="M180.469 72.0173C174.959 72.0173 169.837 71.1442 165.105 69.3978C160.437 67.6515 156.385 65.1937 152.949 62.0245C149.513 58.7905 146.822 55.0068 144.877 50.6733C142.997 46.3398 142.057 41.6183 142.057 36.5087C142.057 31.3344 142.997 26.6128 144.877 22.344C146.822 18.0105 149.513 14.2592 152.949 11.0899C156.385 7.85595 160.437 5.36582 165.105 3.61949C169.837 1.87316 174.959 1 180.469 1C186.045 1 191.167 1.87316 195.834 3.61949C200.502 5.36582 204.554 7.85595 207.99 11.0899C211.426 14.2592 214.084 18.0105 215.964 22.344C217.909 26.6128 218.882 31.3344 218.882 36.5087C218.882 41.6183 217.909 46.3398 215.964 50.6733C214.084 55.0068 211.426 58.7905 207.99 62.0245C204.554 65.1937 200.502 67.6515 195.834 69.3978C191.167 71.1442 186.045 72.0173 180.469 72.0173ZM180.469 53.4869C182.609 53.4869 184.586 53.0988 186.401 52.3226C188.282 51.5465 189.902 50.4469 191.264 49.024C192.69 47.5364 193.792 45.7577 194.57 43.688C195.348 41.5536 195.737 39.1605 195.737 36.5087C195.737 33.8568 195.348 31.4961 194.57 29.4263C193.792 27.2919 192.69 25.5133 191.264 24.0903C189.902 22.6027 188.282 21.4708 186.401 20.6947C184.586 19.9186 182.609 19.5305 180.469 19.5305C178.33 19.5305 176.32 19.9186 174.44 20.6947C172.625 21.4708 171.004 22.6027 169.578 24.0903C168.216 25.5133 167.147 27.2919 166.369 29.4263C165.591 31.4961 165.202 33.8568 165.202 36.5087C165.202 39.1605 165.591 41.5536 166.369 43.688C167.147 45.7577 168.216 47.5364 169.578 49.024C171.004 50.4469 172.625 51.5465 174.44 52.3226C176.32 53.0988 178.33 53.4869 180.469 53.4869Z"/>
<path d="M218.421 70.465L248.762 28.1651L248.665 44.1731L219.296 2.55229H245.067L262.182 27.777L251.193 27.874L267.92 2.55229H292.62L263.252 43.2999V27.389L294.079 70.465H267.822L250.707 44.0761L261.307 43.9791L244.58 70.465H218.421Z"/>
<path d="M313.377 70.465V40.6805L318.628 54.36L287.704 2.55229H311.918L332.826 37.9639H318.725L339.828 2.55229H362L331.27 54.36L336.327 40.6805V70.465H313.377Z"/>
<path d="M173.153 172.825C167.448 172.825 161.937 172.179 156.621 170.885C151.305 169.591 146.929 167.91 143.493 165.84L150.883 149.153C154.125 151.029 157.723 152.549 161.678 153.713C165.697 154.812 169.587 155.362 173.347 155.362C175.552 155.362 177.27 155.233 178.501 154.974C179.798 154.651 180.738 154.23 181.321 153.713C181.905 153.131 182.197 152.451 182.197 151.675C182.197 150.446 181.516 149.476 180.155 148.765C178.793 148.053 176.978 147.471 174.709 147.018C172.504 146.501 170.073 145.984 167.415 145.466C164.757 144.884 162.067 144.14 159.344 143.235C156.686 142.329 154.222 141.133 151.953 139.645C149.749 138.157 147.966 136.217 146.605 133.824C145.243 131.366 144.562 128.326 144.562 124.704C144.562 120.5 145.729 116.684 148.063 113.256C150.462 109.763 153.995 106.982 158.663 104.913C163.396 102.843 169.263 101.808 176.265 101.808C180.868 101.808 185.406 102.293 189.879 103.263C194.352 104.233 198.372 105.721 201.938 107.726L195.033 124.316C191.662 122.635 188.388 121.373 185.211 120.533C182.099 119.692 179.052 119.271 176.07 119.271C173.866 119.271 172.115 119.465 170.819 119.853C169.522 120.241 168.582 120.759 167.999 121.406C167.48 122.052 167.221 122.764 167.221 123.54C167.221 124.704 167.901 125.642 169.263 126.354C170.624 127 172.407 127.55 174.611 128.003C176.881 128.456 179.344 128.941 182.002 129.458C184.725 129.976 187.416 130.687 190.074 131.593C192.732 132.498 195.163 133.695 197.367 135.182C199.636 136.67 201.451 138.61 202.813 141.003C204.174 143.396 204.855 146.372 204.855 149.929C204.855 154.068 203.656 157.885 201.257 161.377C198.923 164.805 195.422 167.586 190.754 169.721C186.087 171.79 180.219 172.825 173.153 172.825Z"/>
<path d="M237.066 172.825C231.36 172.825 225.85 172.179 220.534 170.885C215.218 169.591 210.842 167.91 207.405 165.84L214.796 149.153C218.038 151.029 221.636 152.549 225.59 153.713C229.61 154.812 233.5 155.362 237.26 155.362C239.464 155.362 241.182 155.233 242.414 154.974C243.711 154.651 244.651 154.23 245.234 153.713C245.818 153.131 246.109 152.451 246.109 151.675C246.109 150.446 245.429 149.476 244.067 148.765C242.706 148.053 240.891 147.471 238.622 147.018C236.417 146.501 233.986 145.984 231.328 145.466C228.67 144.884 225.979 144.14 223.257 143.235C220.599 142.329 218.135 141.133 215.866 139.645C213.662 138.157 211.879 136.217 210.517 133.824C209.156 131.366 208.475 128.326 208.475 124.704C208.475 120.5 209.642 116.684 211.976 113.256C214.375 109.763 217.908 106.982 222.576 104.913C227.309 102.843 233.176 101.808 240.177 101.808C244.78 101.808 249.319 102.293 253.792 103.263C258.265 104.233 262.285 105.721 265.85 107.726L258.946 124.316C255.575 122.635 252.301 121.373 249.124 120.533C246.012 119.692 242.965 119.271 239.983 119.271C237.779 119.271 236.028 119.465 234.732 119.853C233.435 120.241 232.495 120.759 231.912 121.406C231.393 122.052 231.134 122.764 231.134 123.54C231.134 124.704 231.814 125.642 233.176 126.354C234.537 127 236.32 127.55 238.524 128.003C240.793 128.456 243.257 128.941 245.915 129.458C248.638 129.976 251.328 130.687 253.986 131.593C256.644 132.498 259.076 133.695 261.28 135.182C263.549 136.67 265.364 138.61 266.726 141.003C268.087 143.396 268.768 146.372 268.768 149.929C268.768 154.068 267.568 157.885 265.17 161.377C262.836 164.805 259.335 167.586 254.667 169.721C249.999 171.79 244.132 172.825 237.066 172.825Z"/>
<path d="M286.735 172.243C283.104 172.243 280.057 171.079 277.594 168.751C275.13 166.357 273.898 163.318 273.898 159.631C273.898 155.879 275.13 152.872 277.594 150.608C280.057 148.344 283.104 147.213 286.735 147.213C290.365 147.213 293.412 148.344 295.876 150.608C298.34 152.872 299.571 155.879 299.571 159.631C299.571 163.318 298.34 166.357 295.876 168.751C293.412 171.079 290.365 172.243 286.735 172.243Z"/>
<path d="M102.349 174.24C114.323 171.846 129.804 163.253 129.804 141.032C129.804 120.811 114.968 107.346 104.299 101.159C101.932 99.7861 99.1609 101.592 99.1609 104.323V111.311C99.1609 116.82 96.839 126.878 90.3869 131.061C87.0928 133.197 83.5352 130 83.1348 126.101L82.8061 122.899C82.4239 119.177 78.6242 116.918 75.6425 119.187C70.2858 123.264 64.6879 130.403 64.6879 141.032C64.6879 168.206 84.9461 175 95.0751 175C95.6642 175 96.2836 174.982 96.9282 174.945C91.9266 174.519 83.8396 171.423 83.8396 161.412C83.8396 153.581 89.5662 148.283 93.9172 145.707C95.0874 145.015 96.4571 145.914 96.4571 147.271V149.523C96.4571 151.246 97.1251 153.94 98.7151 155.784C100.515 157.87 103.156 155.684 103.369 152.94C103.436 152.075 104.309 151.523 105.06 151.961C107.516 153.393 110.652 156.453 110.652 161.412C110.652 169.238 106.327 172.838 102.349 174.24Z"/>
</mask>
<path d="M1 70.465V2.55229H33.772C40.1254 2.55229 45.6036 3.58715 50.2066 5.65687C54.8744 7.72659 58.4725 10.7018 61.0009 14.5825C63.5293 18.3986 64.7935 22.9261 64.7935 28.1651C64.7935 33.4041 63.5293 37.9316 61.0009 41.7477C58.4725 45.5637 54.8744 48.5389 50.2066 50.6733C45.6036 52.743 40.1254 53.7779 33.772 53.7779H13.7393L23.9501 43.9791V70.465H1ZM23.9501 46.5015L13.7393 36.1206H32.3133C35.49 36.1206 37.8239 35.4091 39.315 33.9862C40.8709 32.5633 41.6489 30.6229 41.6489 28.1651C41.6489 25.7073 40.8709 23.7669 39.315 22.344C37.8239 20.9211 35.49 20.2096 32.3133 20.2096H13.7393L23.9501 9.82866V46.5015Z" fill="#BB2649"/>
<path d="M72.3202 70.465V2.55229H105.092C111.446 2.55229 116.924 3.58715 121.527 5.65687C126.195 7.72659 129.793 10.7018 132.321 14.5825C134.85 18.3986 136.114 22.9261 136.114 28.1651C136.114 33.4041 134.85 37.9316 132.321 41.7477C129.793 45.499 126.195 48.3772 121.527 50.3823C116.924 52.3873 111.446 53.3898 105.092 53.3898H85.0595L95.2703 43.9791V70.465H72.3202ZM113.066 70.465L96.34 45.7254H120.652L137.572 70.465H113.066ZM95.2703 46.5015L85.0595 36.1206H103.634C106.81 36.1206 109.144 35.4091 110.635 33.9862C112.191 32.5633 112.969 30.6229 112.969 28.1651C112.969 25.7073 112.191 23.7669 110.635 22.344C109.144 20.9211 106.81 20.2096 103.634 20.2096H85.0595L95.2703 9.82866V46.5015Z" fill="#BB2649"/>
<path d="M180.469 72.0173C174.959 72.0173 169.837 71.1442 165.105 69.3978C160.437 67.6515 156.385 65.1937 152.949 62.0245C149.513 58.7905 146.822 55.0068 144.877 50.6733C142.997 46.3398 142.057 41.6183 142.057 36.5087C142.057 31.3344 142.997 26.6128 144.877 22.344C146.822 18.0105 149.513 14.2592 152.949 11.0899C156.385 7.85595 160.437 5.36582 165.105 3.61949C169.837 1.87316 174.959 1 180.469 1C186.045 1 191.167 1.87316 195.834 3.61949C200.502 5.36582 204.554 7.85595 207.99 11.0899C211.426 14.2592 214.084 18.0105 215.964 22.344C217.909 26.6128 218.882 31.3344 218.882 36.5087C218.882 41.6183 217.909 46.3398 215.964 50.6733C214.084 55.0068 211.426 58.7905 207.99 62.0245C204.554 65.1937 200.502 67.6515 195.834 69.3978C191.167 71.1442 186.045 72.0173 180.469 72.0173ZM180.469 53.4869C182.609 53.4869 184.586 53.0988 186.401 52.3226C188.282 51.5465 189.902 50.4469 191.264 49.024C192.69 47.5364 193.792 45.7577 194.57 43.688C195.348 41.5536 195.737 39.1605 195.737 36.5087C195.737 33.8568 195.348 31.4961 194.57 29.4263C193.792 27.2919 192.69 25.5133 191.264 24.0903C189.902 22.6027 188.282 21.4708 186.401 20.6947C184.586 19.9186 182.609 19.5305 180.469 19.5305C178.33 19.5305 176.32 19.9186 174.44 20.6947C172.625 21.4708 171.004 22.6027 169.578 24.0903C168.216 25.5133 167.147 27.2919 166.369 29.4263C165.591 31.4961 165.202 33.8568 165.202 36.5087C165.202 39.1605 165.591 41.5536 166.369 43.688C167.147 45.7577 168.216 47.5364 169.578 49.024C171.004 50.4469 172.625 51.5465 174.44 52.3226C176.32 53.0988 178.33 53.4869 180.469 53.4869Z" fill="#BB2649"/>
<path d="M218.421 70.465L248.762 28.1651L248.665 44.1731L219.296 2.55229H245.067L262.182 27.777L251.193 27.874L267.92 2.55229H292.62L263.252 43.2999V27.389L294.079 70.465H267.822L250.707 44.0761L261.307 43.9791L244.58 70.465H218.421Z" fill="#BB2649"/>
<path d="M313.377 70.465V40.6805L318.628 54.36L287.704 2.55229H311.918L332.826 37.9639H318.725L339.828 2.55229H362L331.27 54.36L336.327 40.6805V70.465H313.377Z" fill="#BB2649"/>
<path d="M173.153 172.825C167.448 172.825 161.937 172.179 156.621 170.885C151.305 169.591 146.929 167.91 143.493 165.84L150.883 149.153C154.125 151.029 157.723 152.549 161.678 153.713C165.697 154.812 169.587 155.362 173.347 155.362C175.552 155.362 177.27 155.233 178.501 154.974C179.798 154.651 180.738 154.23 181.321 153.713C181.905 153.131 182.197 152.451 182.197 151.675C182.197 150.446 181.516 149.476 180.155 148.765C178.793 148.053 176.978 147.471 174.709 147.018C172.504 146.501 170.073 145.984 167.415 145.466C164.757 144.884 162.067 144.14 159.344 143.235C156.686 142.329 154.222 141.133 151.953 139.645C149.749 138.157 147.966 136.217 146.605 133.824C145.243 131.366 144.562 128.326 144.562 124.704C144.562 120.5 145.729 116.684 148.063 113.256C150.462 109.763 153.995 106.982 158.663 104.913C163.396 102.843 169.263 101.808 176.265 101.808C180.868 101.808 185.406 102.293 189.879 103.263C194.352 104.233 198.372 105.721 201.938 107.726L195.033 124.316C191.662 122.635 188.388 121.373 185.211 120.533C182.099 119.692 179.052 119.271 176.07 119.271C173.866 119.271 172.115 119.465 170.819 119.853C169.522 120.241 168.582 120.759 167.999 121.406C167.48 122.052 167.221 122.764 167.221 123.54C167.221 124.704 167.901 125.642 169.263 126.354C170.624 127 172.407 127.55 174.611 128.003C176.881 128.456 179.344 128.941 182.002 129.458C184.725 129.976 187.416 130.687 190.074 131.593C192.732 132.498 195.163 133.695 197.367 135.182C199.636 136.67 201.451 138.61 202.813 141.003C204.174 143.396 204.855 146.372 204.855 149.929C204.855 154.068 203.656 157.885 201.257 161.377C198.923 164.805 195.422 167.586 190.754 169.721C186.087 171.79 180.219 172.825 173.153 172.825Z" fill="#BB2649"/>
<path d="M237.066 172.825C231.36 172.825 225.85 172.179 220.534 170.885C215.218 169.591 210.842 167.91 207.405 165.84L214.796 149.153C218.038 151.029 221.636 152.549 225.59 153.713C229.61 154.812 233.5 155.362 237.26 155.362C239.464 155.362 241.182 155.233 242.414 154.974C243.711 154.651 244.651 154.23 245.234 153.713C245.818 153.131 246.109 152.451 246.109 151.675C246.109 150.446 245.429 149.476 244.067 148.765C242.706 148.053 240.891 147.471 238.622 147.018C236.417 146.501 233.986 145.984 231.328 145.466C228.67 144.884 225.979 144.14 223.257 143.235C220.599 142.329 218.135 141.133 215.866 139.645C213.662 138.157 211.879 136.217 210.517 133.824C209.156 131.366 208.475 128.326 208.475 124.704C208.475 120.5 209.642 116.684 211.976 113.256C214.375 109.763 217.908 106.982 222.576 104.913C227.309 102.843 233.176 101.808 240.177 101.808C244.78 101.808 249.319 102.293 253.792 103.263C258.265 104.233 262.285 105.721 265.85 107.726L258.946 124.316C255.575 122.635 252.301 121.373 249.124 120.533C246.012 119.692 242.965 119.271 239.983 119.271C237.779 119.271 236.028 119.465 234.732 119.853C233.435 120.241 232.495 120.759 231.912 121.406C231.393 122.052 231.134 122.764 231.134 123.54C231.134 124.704 231.814 125.642 233.176 126.354C234.537 127 236.32 127.55 238.524 128.003C240.793 128.456 243.257 128.941 245.915 129.458C248.638 129.976 251.328 130.687 253.986 131.593C256.644 132.498 259.076 133.695 261.28 135.182C263.549 136.67 265.364 138.61 266.726 141.003C268.087 143.396 268.768 146.372 268.768 149.929C268.768 154.068 267.568 157.885 265.17 161.377C262.836 164.805 259.335 167.586 254.667 169.721C249.999 171.79 244.132 172.825 237.066 172.825Z" fill="#BB2649"/>
<path d="M286.735 172.243C283.104 172.243 280.057 171.079 277.594 168.751C275.13 166.357 273.898 163.318 273.898 159.631C273.898 155.879 275.13 152.872 277.594 150.608C280.057 148.344 283.104 147.213 286.735 147.213C290.365 147.213 293.412 148.344 295.876 150.608C298.34 152.872 299.571 155.879 299.571 159.631C299.571 163.318 298.34 166.357 295.876 168.751C293.412 171.079 290.365 172.243 286.735 172.243Z" fill="#BB2649"/>
<path d="M102.349 174.24C114.323 171.846 129.804 163.253 129.804 141.032C129.804 120.811 114.968 107.346 104.299 101.159C101.932 99.7861 99.1609 101.592 99.1609 104.323V111.311C99.1609 116.82 96.839 126.878 90.3869 131.061C87.0928 133.197 83.5352 130 83.1348 126.101L82.8061 122.899C82.4239 119.177 78.6242 116.918 75.6425 119.187C70.2858 123.264 64.6879 130.403 64.6879 141.032C64.6879 168.206 84.9461 175 95.0751 175C95.6642 175 96.2836 174.982 96.9282 174.945C91.9266 174.519 83.8396 171.423 83.8396 161.412C83.8396 153.581 89.5662 148.283 93.9172 145.707C95.0874 145.015 96.4571 145.914 96.4571 147.271V149.523C96.4571 151.246 97.1251 153.94 98.7151 155.784C100.515 157.87 103.156 155.684 103.369 152.94C103.436 152.075 104.309 151.523 105.06 151.961C107.516 153.393 110.652 156.453 110.652 161.412C110.652 169.238 106.327 172.838 102.349 174.24Z" fill="#BB2649"/>
<path d="M1 70.465V2.55229H33.772C40.1254 2.55229 45.6036 3.58715 50.2066 5.65687C54.8744 7.72659 58.4725 10.7018 61.0009 14.5825C63.5293 18.3986 64.7935 22.9261 64.7935 28.1651C64.7935 33.4041 63.5293 37.9316 61.0009 41.7477C58.4725 45.5637 54.8744 48.5389 50.2066 50.6733C45.6036 52.743 40.1254 53.7779 33.772 53.7779H13.7393L23.9501 43.9791V70.465H1ZM23.9501 46.5015L13.7393 36.1206H32.3133C35.49 36.1206 37.8239 35.4091 39.315 33.9862C40.8709 32.5633 41.6489 30.6229 41.6489 28.1651C41.6489 25.7073 40.8709 23.7669 39.315 22.344C37.8239 20.9211 35.49 20.2096 32.3133 20.2096H13.7393L23.9501 9.82866V46.5015Z" stroke="black" stroke-width="2" mask="url(#path-1-outside-1_1_13)"/>
<path d="M72.3202 70.465V2.55229H105.092C111.446 2.55229 116.924 3.58715 121.527 5.65687C126.195 7.72659 129.793 10.7018 132.321 14.5825C134.85 18.3986 136.114 22.9261 136.114 28.1651C136.114 33.4041 134.85 37.9316 132.321 41.7477C129.793 45.499 126.195 48.3772 121.527 50.3823C116.924 52.3873 111.446 53.3898 105.092 53.3898H85.0595L95.2703 43.9791V70.465H72.3202ZM113.066 70.465L96.34 45.7254H120.652L137.572 70.465H113.066ZM95.2703 46.5015L85.0595 36.1206H103.634C106.81 36.1206 109.144 35.4091 110.635 33.9862C112.191 32.5633 112.969 30.6229 112.969 28.1651C112.969 25.7073 112.191 23.7669 110.635 22.344C109.144 20.9211 106.81 20.2096 103.634 20.2096H85.0595L95.2703 9.82866V46.5015Z" stroke="black" stroke-width="2" mask="url(#path-1-outside-1_1_13)"/>
<path d="M180.469 72.0173C174.959 72.0173 169.837 71.1442 165.105 69.3978C160.437 67.6515 156.385 65.1937 152.949 62.0245C149.513 58.7905 146.822 55.0068 144.877 50.6733C142.997 46.3398 142.057 41.6183 142.057 36.5087C142.057 31.3344 142.997 26.6128 144.877 22.344C146.822 18.0105 149.513 14.2592 152.949 11.0899C156.385 7.85595 160.437 5.36582 165.105 3.61949C169.837 1.87316 174.959 1 180.469 1C186.045 1 191.167 1.87316 195.834 3.61949C200.502 5.36582 204.554 7.85595 207.99 11.0899C211.426 14.2592 214.084 18.0105 215.964 22.344C217.909 26.6128 218.882 31.3344 218.882 36.5087C218.882 41.6183 217.909 46.3398 215.964 50.6733C214.084 55.0068 211.426 58.7905 207.99 62.0245C204.554 65.1937 200.502 67.6515 195.834 69.3978C191.167 71.1442 186.045 72.0173 180.469 72.0173ZM180.469 53.4869C182.609 53.4869 184.586 53.0988 186.401 52.3226C188.282 51.5465 189.902 50.4469 191.264 49.024C192.69 47.5364 193.792 45.7577 194.57 43.688C195.348 41.5536 195.737 39.1605 195.737 36.5087C195.737 33.8568 195.348 31.4961 194.57 29.4263C193.792 27.2919 192.69 25.5133 191.264 24.0903C189.902 22.6027 188.282 21.4708 186.401 20.6947C184.586 19.9186 182.609 19.5305 180.469 19.5305C178.33 19.5305 176.32 19.9186 174.44 20.6947C172.625 21.4708 171.004 22.6027 169.578 24.0903C168.216 25.5133 167.147 27.2919 166.369 29.4263C165.591 31.4961 165.202 33.8568 165.202 36.5087C165.202 39.1605 165.591 41.5536 166.369 43.688C167.147 45.7577 168.216 47.5364 169.578 49.024C171.004 50.4469 172.625 51.5465 174.44 52.3226C176.32 53.0988 178.33 53.4869 180.469 53.4869Z" stroke="black" stroke-width="2" mask="url(#path-1-outside-1_1_13)"/>
<path d="M218.421 70.465L248.762 28.1651L248.665 44.1731L219.296 2.55229H245.067L262.182 27.777L251.193 27.874L267.92 2.55229H292.62L263.252 43.2999V27.389L294.079 70.465H267.822L250.707 44.0761L261.307 43.9791L244.58 70.465H218.421Z" stroke="black" stroke-width="2" mask="url(#path-1-outside-1_1_13)"/>
<path d="M313.377 70.465V40.6805L318.628 54.36L287.704 2.55229H311.918L332.826 37.9639H318.725L339.828 2.55229H362L331.27 54.36L336.327 40.6805V70.465H313.377Z" stroke="black" stroke-width="2" mask="url(#path-1-outside-1_1_13)"/>
<path d="M173.153 172.825C167.448 172.825 161.937 172.179 156.621 170.885C151.305 169.591 146.929 167.91 143.493 165.84L150.883 149.153C154.125 151.029 157.723 152.549 161.678 153.713C165.697 154.812 169.587 155.362 173.347 155.362C175.552 155.362 177.27 155.233 178.501 154.974C179.798 154.651 180.738 154.23 181.321 153.713C181.905 153.131 182.197 152.451 182.197 151.675C182.197 150.446 181.516 149.476 180.155 148.765C178.793 148.053 176.978 147.471 174.709 147.018C172.504 146.501 170.073 145.984 167.415 145.466C164.757 144.884 162.067 144.14 159.344 143.235C156.686 142.329 154.222 141.133 151.953 139.645C149.749 138.157 147.966 136.217 146.605 133.824C145.243 131.366 144.562 128.326 144.562 124.704C144.562 120.5 145.729 116.684 148.063 113.256C150.462 109.763 153.995 106.982 158.663 104.913C163.396 102.843 169.263 101.808 176.265 101.808C180.868 101.808 185.406 102.293 189.879 103.263C194.352 104.233 198.372 105.721 201.938 107.726L195.033 124.316C191.662 122.635 188.388 121.373 185.211 120.533C182.099 119.692 179.052 119.271 176.07 119.271C173.866 119.271 172.115 119.465 170.819 119.853C169.522 120.241 168.582 120.759 167.999 121.406C167.48 122.052 167.221 122.764 167.221 123.54C167.221 124.704 167.901 125.642 169.263 126.354C170.624 127 172.407 127.55 174.611 128.003C176.881 128.456 179.344 128.941 182.002 129.458C184.725 129.976 187.416 130.687 190.074 131.593C192.732 132.498 195.163 133.695 197.367 135.182C199.636 136.67 201.451 138.61 202.813 141.003C204.174 143.396 204.855 146.372 204.855 149.929C204.855 154.068 203.656 157.885 201.257 161.377C198.923 164.805 195.422 167.586 190.754 169.721C186.087 171.79 180.219 172.825 173.153 172.825Z" stroke="black" stroke-width="2" mask="url(#path-1-outside-1_1_13)"/>
<path d="M237.066 172.825C231.36 172.825 225.85 172.179 220.534 170.885C215.218 169.591 210.842 167.91 207.405 165.84L214.796 149.153C218.038 151.029 221.636 152.549 225.59 153.713C229.61 154.812 233.5 155.362 237.26 155.362C239.464 155.362 241.182 155.233 242.414 154.974C243.711 154.651 244.651 154.23 245.234 153.713C245.818 153.131 246.109 152.451 246.109 151.675C246.109 150.446 245.429 149.476 244.067 148.765C242.706 148.053 240.891 147.471 238.622 147.018C236.417 146.501 233.986 145.984 231.328 145.466C228.67 144.884 225.979 144.14 223.257 143.235C220.599 142.329 218.135 141.133 215.866 139.645C213.662 138.157 211.879 136.217 210.517 133.824C209.156 131.366 208.475 128.326 208.475 124.704C208.475 120.5 209.642 116.684 211.976 113.256C214.375 109.763 217.908 106.982 222.576 104.913C227.309 102.843 233.176 101.808 240.177 101.808C244.78 101.808 249.319 102.293 253.792 103.263C258.265 104.233 262.285 105.721 265.85 107.726L258.946 124.316C255.575 122.635 252.301 121.373 249.124 120.533C246.012 119.692 242.965 119.271 239.983 119.271C237.779 119.271 236.028 119.465 234.732 119.853C233.435 120.241 232.495 120.759 231.912 121.406C231.393 122.052 231.134 122.764 231.134 123.54C231.134 124.704 231.814 125.642 233.176 126.354C234.537 127 236.32 127.55 238.524 128.003C240.793 128.456 243.257 128.941 245.915 129.458C248.638 129.976 251.328 130.687 253.986 131.593C256.644 132.498 259.076 133.695 261.28 135.182C263.549 136.67 265.364 138.61 266.726 141.003C268.087 143.396 268.768 146.372 268.768 149.929C268.768 154.068 267.568 157.885 265.17 161.377C262.836 164.805 259.335 167.586 254.667 169.721C249.999 171.79 244.132 172.825 237.066 172.825Z" stroke="black" stroke-width="2" mask="url(#path-1-outside-1_1_13)"/>
<path d="M286.735 172.243C283.104 172.243 280.057 171.079 277.594 168.751C275.13 166.357 273.898 163.318 273.898 159.631C273.898 155.879 275.13 152.872 277.594 150.608C280.057 148.344 283.104 147.213 286.735 147.213C290.365 147.213 293.412 148.344 295.876 150.608C298.34 152.872 299.571 155.879 299.571 159.631C299.571 163.318 298.34 166.357 295.876 168.751C293.412 171.079 290.365 172.243 286.735 172.243Z" stroke="black" stroke-width="2" mask="url(#path-1-outside-1_1_13)"/>
<path d="M102.349 174.24C114.323 171.846 129.804 163.253 129.804 141.032C129.804 120.811 114.968 107.346 104.299 101.159C101.932 99.7861 99.1609 101.592 99.1609 104.323V111.311C99.1609 116.82 96.839 126.878 90.3869 131.061C87.0928 133.197 83.5352 130 83.1348 126.101L82.8061 122.899C82.4239 119.177 78.6242 116.918 75.6425 119.187C70.2858 123.264 64.6879 130.403 64.6879 141.032C64.6879 168.206 84.9461 175 95.0751 175C95.6642 175 96.2836 174.982 96.9282 174.945C91.9266 174.519 83.8396 171.423 83.8396 161.412C83.8396 153.581 89.5662 148.283 93.9172 145.707C95.0874 145.015 96.4571 145.914 96.4571 147.271V149.523C96.4571 151.246 97.1251 153.94 98.7151 155.784C100.515 157.87 103.156 155.684 103.369 152.94C103.436 152.075 104.309 151.523 105.06 151.961C107.516 153.393 110.652 156.453 110.652 161.412C110.652 169.238 106.327 172.838 102.349 174.24Z" stroke="black" stroke-width="2" mask="url(#path-1-outside-1_1_13)"/>
</svg>
